
<svg width="180" height="232" viewBox="0 0 180 232" fill="none" xmlns="http://www.w3.org/2000/svg">
	<symbol id='img_1_ID'>
		<path id="Vector" d="M82.07 12.95C81.9 12.36 81.72 11.91 81.54 11.47C80.49 6.15 77.33 2.6 70.47 4.53C64.15 6.3 60.98 15.02 59.4 19.75C58 24.03 57.29 29.5 59.23 33.93C59.05 36 59.05 38.22 59.4 40.43C59.93 44.72 65.38 46.49 69.42 44.42C71.7 43.39 73.46 42.06 74.87 40.73C83.65 36.89 83.13 19.01 82.07 12.95Z" fill="#B988CA" fill-opacity="1.000000" fill-rule="nonzero"/>
		<path id="Vector" d="M142.35 6.74C141.12 -1.83 131.45 -1.68 126.18 4.08C120.91 9.99 112.82 20.63 115.81 28.46C117.74 33.49 122.66 34.52 127.23 33.19C130.22 32.75 133.03 31.27 135.14 29.2C140.76 23.29 143.4 13.98 142.35 6.74Z" fill="#B988CA" fill-opacity="1.000000" fill-rule="nonzero"/>
		<path id="Vector" d="M101.4 58.61C101.23 57.72 100.7 56.69 100 55.95C97.89 51.22 91.38 50.48 85.94 53.29C76.45 58.31 60.63 79.44 76.62 85.36C84.18 88.16 91.74 83.88 96.13 78.85C101.23 73.24 103.16 65.7 101.4 58.61Z" fill="#B988CA" fill-opacity="1.000000" fill-rule="nonzero"/>
		<path id="Vector" d="M136.55 92.74C137.25 91.12 137.78 89.35 137.95 87.57C138.13 87.28 138.3 86.98 138.3 86.69C138.83 84.76 138.66 83.58 137.95 81.66C137.95 81.51 137.78 81.51 137.78 81.37C137.78 81.07 137.78 80.63 137.78 80.33C137.6 77.67 135.14 75.9 132.33 75.6C130.05 74.72 127.23 75.01 125.3 76.93C120.91 81.22 110.01 96.59 114.05 104.12C114.93 106.49 117.74 107.82 120.38 107.97C120.56 107.97 120.56 107.97 120.73 107.97C130.05 109.44 134.61 101.02 136.55 92.74Z" fill="#B988CA" fill-opacity="1.000000" fill-rule="nonzero"/>
		<path id="Vector" d="M36.21 90.97C35.85 89.79 34.8 88.9 33.57 88.31C33.39 87.87 33.22 87.42 33.22 87.13C32.69 85.5 31.29 84.47 29.7 84.03C28.47 82.84 26.89 82.1 24.61 82.1C18.63 81.96 15.29 87.72 13.36 92.74C12.13 94.81 11.43 97.33 11.43 99.69C10.73 104.71 11.96 110.03 17.75 112.55C23.55 115.21 29.18 112.99 32.16 108.85C33.39 107.97 34.62 107.08 35.5 105.75C39.02 101.02 37.79 95.85 36.21 90.97Z" fill="#B988CA" fill-opacity="1.000000" fill-rule="nonzero"/>
		<path id="Vector" d="M86.46 126.44C85.94 123.78 84.71 121.26 82.25 119.49C75.04 114.17 65.2 120.82 60.46 125.7C55.71 130.57 50.62 138.7 56.06 144.61C57.82 146.53 60.1 147.42 62.39 147.57C63.09 148.16 63.97 148.75 65.2 149.19C73.28 152.15 81.02 144.17 84 138.85C84.71 137.52 85.41 135.89 85.94 134.27C88.75 132.49 89.98 128.95 86.46 126.44Z" fill="#B988CA" fill-opacity="1.000000" fill-rule="nonzero"/>
		<path id="Vector" d="M24.78 166.33C26.72 161.46 26.37 149.78 19.86 147.42C18.46 144.02 13.71 142.99 10.37 144.76C1.94 149.19 -2.45 159.09 1.41 166.93C1.94 168.11 2.82 169.14 3.7 170.03C4.4 171.65 5.98 172.54 7.74 172.98C9.5 173.72 11.43 174.31 13.54 174.17C19.16 174.17 22.85 170.62 24.78 166.33Z" fill="#B988CA" fill-opacity="1.000000" fill-rule="nonzero"/>
		<path id="Vector" d="M76.45 192.34C77.85 189.98 78.56 187.47 78.03 185.4L78.03 185.25C78.56 181.85 77.15 178.75 74.51 176.97C73.46 175.64 71.7 174.76 68.89 174.61C60.63 173.87 53.78 183.33 51.14 188.8C49.56 191.9 48.33 195.15 50.44 198.4C52.55 201.65 56.94 202.54 60.81 201.06C64.32 200.91 68.19 199.73 70.65 198.25C70.82 198.11 71 198.11 71.18 197.96C73.46 196.48 75.22 194.71 76.45 192.34Z" fill="#B988CA" fill-opacity="1.000000" fill-rule="nonzero"/>
		<path id="Vector" d="M179.95 43.39C179.95 43.24 180.13 43.09 180.13 42.95C181.71 37.48 179.6 30.24 172.57 28.32C165.19 26.25 158.34 32.01 154.12 36.44C149.9 40.88 145.69 46.79 149.02 52.4C150.08 54.18 151.66 55.51 153.59 56.54C156.58 59.79 162.91 59.64 167.48 57.43C167.65 57.28 167.83 57.28 168 57.13C174.33 54.91 182.41 49.6 179.95 43.39Z" fill="#B988CA" fill-opacity="1.000000" fill-rule="nonzero"/>
		<path id="Vector" d="M129.17 147.57C129.17 146.98 129.34 146.39 129.34 145.79C129.34 143.28 126.71 141.36 123.89 140.92C123.02 140.47 122.14 140.03 121.08 139.59C107.55 135.3 89.8 155.4 100 164.56C102.81 167.07 106.32 168.11 109.84 167.96C111.42 168.55 113 168.85 115.11 168.7C126.18 168.4 131.98 156.29 129.17 147.57Z" fill="#B988CA" fill-opacity="1.000000" fill-rule="nonzero"/>
		<path id="Vector" d="M33.39 221.9C34.27 220.12 34.62 218.05 34.62 216.13C34.45 212.88 32.69 209.34 29.35 207.56C27.07 202.83 22.15 199.14 15.29 200.47C6.16 202.09 0.01 210.37 1.24 217.91C2.29 224.41 8.62 229.43 16.17 230.47C16.7 230.76 17.23 231.06 17.93 231.35C22.68 233.27 28.12 231.94 31.29 228.4C32.69 226.48 33.39 224.26 33.39 221.9Z" fill="#B988CA" fill-opacity="1.000000" fill-rule="nonzero"/>
	</symbol>
</svg>
