
<svg width="369" height="411" viewBox="0 0 369 411" fill="none" xmlns="http://www.w3.org/2000/svg">
  <symbol id='img_2_ID'>
    <path id="Vector" d="M53.34 410.87C53.34 410.87 54.79 343.78 120.55 274.09C139.95 253.55 159.83 233.48 181.31 215.20C209.17 191.81 235.16 168.24 250.80 135.20C256.50 123.61 261.75 111.16 262.15 98.15" fill="none" stroke="#FFCAEB" stroke-opacity="1" stroke-width="3"/>
		<path id="Vector" d="M59.89 375.99C59.89 375.99 20.33 327.01 42.94 289.82C65.54 252.63 72.41 302.25 66.96 318.9C61.51 335.55 55.22 364.08 59.89 375.99Z" fill="#FFCAEB" fill-opacity="1.000000" fill-rule="nonzero"/>
		<path id="Vector" d="M59.04 378.63C59.04 378.63 97.76 364.68 115.55 353.59C133.34 342.5 152.83 333.13 141.92 313.23C131 293.34 92.99 328.95 86.28 336.96C79.59 345.13 59.04 378.63 59.04 378.63Z" fill="#FFCAEB" fill-opacity="1.000000" fill-rule="nonzero"/>
		<path id="Vector" d="M119.54 275C119.54 275 110.12 240.16 125.07 212.9C140.02 185.64 150.71 176.06 159.11 178.85C167.52 181.64 166.02 200.01 156.31 214.82C146.59 229.49 122.77 261.92 119.54 275Z" fill="#FFCAEB" fill-opacity="1.000000" fill-rule="nonzero"/>
		<path id="Vector" d="M121.37 272.98C121.37 272.98 153.11 243.1 188.8 235.65C224.5 228.21 230.48 248 213.02 259.34C195.38 270.41 141.75 277.35 121.37 272.98Z" fill="#FFCAEB" fill-opacity="1.000000" fill-rule="nonzero"/>
		<path id="Vector" d="M194.87 204.18C194.87 204.18 184.1 157.74 198.06 130.9C212.02 104.07 232.35 104.57 235.31 106.72C238.27 108.87 248.85 119.27 232.56 141.94C216.4 164.44 196.25 196.4 194.87 204.18Z" fill="#FFCAEB" fill-opacity="1.000000" fill-rule="nonzero"/>
		<path id="Vector" d="M198.12 201.67C198.12 201.67 246.01 171.04 257.56 167.02C269.11 162.99 297.73 158.54 300.13 171.35C302.53 184.15 285.85 199.12 267.56 200.59C249.44 202.19 209.41 201.4 198.12 201.67Z" fill="#FFCAEB" fill-opacity="1.000000" fill-rule="nonzero"/>
		<path id="Vector" d="M261.07 107.71C261.07 107.71 252.72 76.6 259.67 47.4C266.48 18.21 286.25 -0.59 311.7 2.68C332.15 5.25 319.97 32 314.16 42.44C307.29 54.95 297.16 65.35 287.64 75.82C279.68 84.59 272.37 93.73 264.91 102.89C264.53 103.39 260.82 107 261.07 107.71Z" fill="#FFCAEB" fill-opacity="1.000000" fill-rule="nonzero"/>
		<path id="Vector" d="M65.38 283.64C64.45 281.08 62.41 279.11 60.06 278.22C57.22 276.95 54.18 277.64 51.73 279.45C50.32 280.08 49.13 281.27 48.39 282.41L48.26 282.58C46.29 284.62 45.2 287.74 44.97 290.6C44.68 294.07 46.32 296.39 48.69 297.42C51.84 301.04 57.63 300.89 61.24 297.74C63.25 295.99 64.6 293.73 65.18 291.27C66.04 288.77 66.14 286.08 65.38 283.64Z" fill="#B988CA" fill-opacity="1.000000" fill-rule="nonzero"/>
		<path id="Vector" d="M145.16 322.2C145.07 321.47 144.81 320.61 144.59 320.04C144.3 317.84 143.45 315.87 141.92 314.42C139.09 312.11 135.57 312.56 133.16 314.66C130.64 315.88 128.74 318.51 128.68 321.5C128.65 323.59 129.21 325.6 130.47 327.23C132 329.86 134.92 331.72 138.02 331.47C138.16 331.45 138.31 331.43 138.46 331.41L138.6 331.39C139.34 331.3 140.07 331.2 140.76 330.81C141.46 330.43 142.13 329.89 142.66 329.38L142.79 329.21C142.92 329.05 143.07 329.03 143.05 328.88C144.6 327.04 145.49 324.69 145.16 322.2Z" fill="#B988CA" fill-opacity="1.000000" fill-rule="nonzero"/>
		<path id="Vector" d="M162.53 182.28C162.35 182.01 162.02 181.75 161.69 181.5C160.44 179.87 158.38 178.95 156 178.96C155.41 179.03 154.95 178.94 154.37 179.02C154.07 179.05 153.78 179.09 153.49 179.13C150.52 179.22 147.59 180.79 146.34 183.78C145.09 186.77 145.75 190.71 147.7 193.14C150.02 196.12 153.91 196.21 157.16 194.9C158.63 194.71 160.18 194.06 161.26 193.17C164.75 190.19 165.19 185.51 162.53 182.28Z" fill="#B988CA" fill-opacity="1.000000" fill-rule="nonzero"/>
		<path id="Vector" d="M220.93 243.27C220.17 237.41 213.58 234.83 209.1 238.24C208.41 238.63 207.88 239.15 207.37 239.81C207.24 239.97 206.97 240.16 206.84 240.32C205.16 242.33 204.62 245.08 205.39 247.52C205.51 249.59 206.21 251.58 207.74 253.02C210.13 255.39 213.87 255.51 216.61 253.66C218.53 252.37 219.9 250.26 220.34 247.97C220.91 246.55 221.14 244.88 220.93 243.27Z" fill="#B988CA" fill-opacity="1.000000" fill-rule="nonzero"/>
		<path id="Vector" d="M238.13 111.27C237.87 110.41 237.34 109.73 236.8 109.06C235.37 107.16 233.13 105.96 230.72 105.82C227.26 105.52 223.78 107.46 222.4 110.62C221.71 112.2 221.38 114.18 221.9 115.9C221.94 117.39 222.4 118.67 223.32 120.04C224.95 122.21 227.15 123.12 229.39 123.13C229.68 123.09 229.99 123.2 230.28 123.16C230.28 123.16 230.28 123.16 230.43 123.14C232.81 123.13 235.34 121.91 236.85 119.78C237.36 119.12 237.7 118.33 238.05 117.54C238.7 115.67 238.84 113.27 238.13 111.27Z" fill="#B988CA" fill-opacity="1.000000" fill-rule="nonzero"/>
		<path id="Vector" d="M298.02 168.79C296.76 167.16 294.83 166.07 292.87 165.88C291.06 165.67 289.19 166.21 287.86 167.42C285.33 168.64 283.71 171.09 283.78 173.91C283.73 175.85 284.54 177.53 285.76 178.87C287.07 180.93 289.29 181.99 291.68 181.98C293.03 182.1 294.35 181.93 295.47 181.34C297 180.54 298.32 179.18 298.86 177.62C300.13 174.77 299.99 171.37 298.02 168.79Z" fill="#B988CA" fill-opacity="1.000000" fill-rule="nonzero"/>
		<path id="Vector" d="M312.52 5.55C309.52 3.11 305.38 3.34 302.2 5.25C301.49 5.49 300.79 5.87 300.12 6.41L299.99 6.57C296.97 8.6 295.89 12.91 296.64 16.39C297.5 20.75 301.47 23.81 305.85 23.1C308.95 22.85 311.78 20.55 313.2 17.68C313.71 17.02 314.2 16.21 314.69 15.4C316.36 12.21 315.52 7.99 312.52 5.55Z" fill="#B988CA" fill-opacity="1.000000" fill-rule="nonzero"/>
  </symbol>
</svg>


