
<svg width="187" height="288" viewBox="0 0 187 288" fill="none" xmlns="http://www.w3.org/2000/svg">
	<symbol id='img_3_ID'>
		<path id="Vector" d="M35.27 285.51C33.98 287.17 36.13 289.38 38.28 288.45C71.81 274.65 205.29 210.96 185.09 75.29C178.85 34.06 137.8 -0.73 88.58 0.01C60.42 0.37 23.67 11.79 8.19 33.14C-8.15 55.6 1.53 81.18 23.24 98.12C49.89 118.92 89.22 140.83 89.87 175.8C90.94 215.56 60.85 253.3 35.27 285.51Z" fill="#BBE5FF" fill-opacity="1.000000" fill-rule="nonzero"/>
		<path id="Vector" d="M86.86 18.23C79.55 27.43 70.52 35.53 61.07 43.08C53.54 49.15 43.23 55.41 40.43 64.43C39.57 67.56 42.8 70.32 46.45 69.59C58.06 67.19 66.44 58.17 73.75 50.81C82.56 41.98 92.02 34.06 99.75 24.49C105.13 17.86 92.23 11.42 86.86 18.23Z" fill="#B988CA" fill-opacity="1.000000" fill-rule="nonzero"/>
		<path id="Vector" d="M123.83 59.1C121.03 54.68 115.23 51.55 110.29 55.05C100.83 61.49 92.23 68.85 84.28 76.77C77.19 83.95 70.95 92.04 61.93 97.38C52.25 103.09 69.45 121.87 77.4 112.29C84.92 103.46 92.88 94.81 101.47 86.71C105.99 82.47 110.5 78.42 115.45 74.37C120.6 69.96 128.34 66.27 123.83 59.1Z" fill="#B988CA" fill-opacity="1.000000" fill-rule="nonzero"/>
		<path id="Vector" d="M163.59 75.66C160.37 74.01 156.28 73.27 153.71 73.82C149.62 74.56 146.83 77.5 144.25 80.26C134.36 91.31 124.47 102.35 114.59 113.4C111.79 116.53 108.78 120.76 110.5 124.44C112.87 128.86 120.18 128.49 124.26 126.47C132 122.42 137.16 113.4 143.39 107.69C150.7 101.06 158.43 94.99 165.31 88C166.6 86.52 168.11 85.05 168.54 83.39C169.4 80.08 166.6 77.13 163.59 75.66Z" fill="#B988CA" fill-opacity="1.000000" fill-rule="nonzero"/>
		<path id="Vector" d="M151.56 132.73C147.04 133.65 142.31 136.04 139.95 137.51C132.86 142.3 127.7 148.92 121.68 154.63C116.09 160.15 108.57 165.31 105.34 172.12C102.33 178.19 110.72 183.72 116.95 179.3C125.12 173.59 132.43 166.41 139.95 159.6C143.82 156.1 147.69 152.79 151.77 149.66C155.42 146.9 160.37 144.32 161.87 140.09C163.59 134.94 157.14 131.62 151.56 132.73Z" fill="#B988CA" fill-opacity="1.000000" fill-rule="nonzero"/>
		<path id="Vector" d="M143.17 194.02C141.88 191.81 139.52 189.97 136.51 189.79C130.06 189.61 121.68 201.39 118.03 205.07C111.36 211.33 104.27 217.59 97.18 223.48C92.88 226.97 82.77 232.31 82.77 238.02C82.99 243.36 90.51 245.93 95.24 242.62C104.48 235.99 113.3 229.18 121.89 221.82C126.19 218.14 130.49 214.27 134.58 210.41C137.8 207.28 142.74 204.52 144.25 200.28C144.89 198.63 144.46 196.05 143.17 194.02Z" fill="#B988CA" fill-opacity="1.000000" fill-rule="nonzero"/>
		<path id="Vector" d="M45.8 25.96C39.36 27.43 33.77 33.14 28.82 36.82C23.67 40.69 17.86 44.55 14.21 49.71C10.55 54.86 19.15 60.75 24.1 56.15C28.82 51.92 33.55 47.87 38.71 44C43.44 40.14 49.46 36.45 51.82 31.12C53.33 28.17 49.24 25.22 45.8 25.96Z" fill="#B988CA" fill-opacity="1.000000" fill-rule="nonzero"/>
		<path id="Vector" d="M121.68 25.78C110.5 30.38 100.19 38.85 92.02 46.76C88.15 50.44 93.09 56.52 98.25 53.76C108.78 48.05 116.31 39.4 127.7 34.61C134.58 31.48 128.56 23.02 121.68 25.78Z" fill="#B988CA" fill-opacity="1.000000" fill-rule="nonzero"/>
		<path id="Vector" d="M107.28 95.17C102.55 98.12 99.11 101.99 95.67 105.85C92.23 109.72 87.72 113.03 87.07 118C86.64 120.95 90.94 123.52 94.17 122.6C99.54 120.95 102.33 116.34 105.77 112.48C109.21 108.61 112.87 104.75 115.02 100.14C116.52 96.65 110.93 92.97 107.28 95.17Z" fill="#B988CA" fill-opacity="1.000000" fill-rule="nonzero"/>
		<path id="Vector" d="M168.32 104.19C161.66 106.96 154.35 111.01 149.84 115.98C148.12 117.82 147.69 120.02 149.41 121.87C150.91 123.52 153.92 124.26 156.07 122.97C162.3 119.66 167.89 115.98 174.34 113.03C181.22 109.9 175.2 101.25 168.32 104.19Z" fill="#B988CA" fill-opacity="1.000000" fill-rule="nonzero"/>
		<path id="Vector" d="M150.7 45.66C143.82 49.52 135.87 54.86 132.21 61.3C129.63 66.09 136.08 71.06 141.02 67.01C143.6 64.8 145.97 62.22 148.55 60.2C151.13 58.17 153.92 56.33 156.93 54.68C163.59 51 157.57 41.98 150.7 45.66Z" fill="#B988CA" fill-opacity="1.000000" fill-rule="nonzero"/>
		<path id="Vector" d="M56.98 77.69C54.62 75.66 51.61 76.21 49.46 77.69C44.51 81 39.79 84.31 35.49 88.18C29.68 93.52 39.14 101.43 44.73 96.09C49.03 92.23 52.9 88 56.98 84.13C58.92 82.47 59.13 79.53 56.98 77.69Z" fill="#B988CA" fill-opacity="1.000000" fill-rule="nonzero"/>
		<path id="Vector" d="M114.16 133.83C110.29 134.75 106.85 136.59 103.62 138.62C100.4 140.64 96.75 142.67 94.17 145.24C89.65 149.66 95.67 157.58 101.9 153.89C105.13 152.05 107.92 149.66 110.93 147.45C113.73 145.43 116.95 143.59 119.32 141.01C122.11 137.88 119.53 132.54 114.16 133.83Z" fill="#B988CA" fill-opacity="1.000000" fill-rule="nonzero"/>
		<path id="Vector" d="M157.79 156.84C149.19 161.81 140.81 169.17 136.3 177.27C133.72 181.69 139.95 186.29 144.46 182.61C151.13 177.09 155.86 170.28 163.81 165.68C170.04 161.99 164.02 153.16 157.79 156.84Z" fill="#B988CA" fill-opacity="1.000000" fill-rule="nonzero"/>
		<path id="Vector" d="M106.2 191.63C100.62 195.31 95.89 200.28 91.16 204.7C85.57 209.85 94.17 217.22 100.19 212.43C105.34 208.01 111.36 202.86 114.59 197.15C117.38 192.37 110.93 188.5 106.2 191.63Z" fill="#B988CA" fill-opacity="1.000000" fill-rule="nonzero"/>
		<path id="Vector" d="M76.97 249.98C73.1 252.56 69.23 255.14 65.58 257.9C61.93 260.66 57.63 263.24 55.26 266.73C52.68 270.97 57.84 274.46 62.35 272.81C66.44 271.34 69.88 267.84 73.1 265.26C76.54 262.5 79.98 259.74 83.2 256.79C87.07 253.48 81.91 246.85 76.97 249.98Z" fill="#B988CA" fill-opacity="1.000000" fill-rule="nonzero"/>
	</symbol>
</svg>
