
<svg width="261" height="263" viewBox="0 0 261 263" fill="none" xmlns="http://www.w3.org/2000/svg">
  <symbol id='img_4_ID'>
		<path id="Vector" d="M26.45 220.75C24.75 219.85 23.35 207.55 22.95 205.75C20.35 194.45 17.95 183.15 14.95 171.95C10.45 155.35 6.55 138.55 3.35 121.65C0.65 107.55 -1.95 95.45 2.05 81.55C4.05 74.55 7.95 63.85 15.95 61.55C26.45 58.55 34.25 72.45 38.25 79.85C38.25 79.85 43.85 122.75 48.45 126.85C53.05 130.95 61.25 133.35 66.35 109.95C71.35 86.95 70.15 62.65 78.65 40.45C82.95 29.35 90.25 18.95 100.75 12.95C126.35 -1.75 120.55 53.85 115.75 64.15C111.45 73.35 105.25 85.05 107.25 95.65C108.35 101.25 112.45 106.45 118.15 107.85C136.05 112.05 146.65 85.75 152.85 73.65C169.35 41.25 195.15 11.35 231.75 1.55C243.85 -1.65 258.05 -1.15 254.75 15.35C254.35 17.55 253.65 19.75 252.85 21.85C244.95 43.65 229.65 62.35 213.15 78.25C197.55 93.35 173.75 105.25 168.65 128.25C168.05 131.05 167.75 133.95 168.85 136.55C172.15 144.35 183.25 142.25 189.75 141.25C201.35 139.45 213.05 137.55 224.85 137.15C237.35 136.65 260.95 137.25 261.55 154.35C262.55 180.95 186.95 191.65 173.25 193.15C159.45 194.65 134.95 193.15 143.15 205.95C151.35 218.75 188.05 223.05 173.25 254.55C158.15 286.05 26.45 220.75 26.45 220.75Z" fill="#B988CA" fill-opacity="1.000000" fill-rule="nonzero"/>
		<path id="Vector" d="M19.65 69.25C17.85 68.25 15.65 68.05 13.65 68.65C13.25 68.65 12.85 68.75 12.45 68.85C9.15 69.65 6.85 72.55 6.65 75.85C6.65 76.25 6.65 76.65 6.65 77.05C6.25 79.05 6.45 80.95 7.35 82.55C10.55 88.15 19.15 85.85 21.55 80.75C21.65 80.65 21.65 80.45 21.75 80.35C22.45 79.35 22.85 78.35 23.05 77.15C23.75 74.05 22.55 70.75 19.65 69.25Z" fill="#ECA127" fill-opacity="1.000000" fill-rule="nonzero"/>
		<path id="Vector" d="M27.05 109.35C23.05 108.05 18.65 109.85 16.95 113.85C15.15 118.05 17.25 122.95 21.45 124.55C22.15 124.95 23.05 125.25 23.95 125.35C27.95 125.85 31.65 122.75 32.45 118.85C33.25 114.65 31.05 110.65 27.05 109.35Z" fill="#ECA127" fill-opacity="1.000000" fill-rule="nonzero"/>
		<path id="Vector" d="M28.35 155.45C26.35 154.95 24.25 155.25 22.55 156.25C21.55 156.65 20.65 157.25 19.75 158.25C19.05 159.05 18.45 160.05 18.05 161.05C17.75 161.75 17.45 162.45 17.35 163.25C17.15 164.25 17.05 165.15 17.05 166.15C17.05 169.15 17.95 172.15 19.85 174.15C24.35 178.95 32.25 176.95 34.85 171.25C37.35 165.65 34.65 157.15 28.35 155.45Z" fill="#ECA127" fill-opacity="1.000000" fill-rule="nonzero"/>
		<path id="Vector" d="M56.65 192.45C56.35 187.25 51.45 183.25 46.25 184.45C44.85 184.75 43.55 185.55 42.45 186.55C41.25 186.95 40.15 187.75 39.15 188.85C36.35 192.05 36.85 196.95 39.95 199.85C42.15 201.95 45.15 202.45 47.85 201.75C48.75 201.75 49.55 201.75 50.45 201.45C54.35 200.35 56.85 196.45 56.65 192.45Z" fill="#ECA127" fill-opacity="1.000000" fill-rule="nonzero"/>
		<path id="Vector" d="M72.85 145.85C69.65 144.15 66.15 144.95 63.35 146.85C62.35 146.95 61.35 147.25 60.35 147.95C58.65 149.05 57.65 150.75 57.15 152.75C53.75 156.05 54.75 162.55 59.55 164.45C60.85 165.55 62.55 166.15 64.45 166.05C65.95 165.95 67.45 165.45 68.75 164.65C75.85 161.45 80.85 149.95 72.85 145.85Z" fill="#ECA127" fill-opacity="1.000000" fill-rule="nonzero"/>
		<path id="Vector" d="M94.95 107.15C93.55 102.35 88.05 100.25 83.75 102.45C80.15 104.35 78.55 108.35 78.85 112.25C78.85 112.55 78.75 112.95 78.75 113.25C78.75 116.25 80.25 118.15 82.25 119.15C83.95 120.45 86.25 121.15 88.65 120.95C93.45 120.55 97.15 117.25 97.05 112.25C97.05 110.35 96.15 108.55 94.95 107.15Z" fill="#ECA127" fill-opacity="1.000000" fill-rule="nonzero"/>
		<path id="Vector" d="M112.75 60.65C111.95 57.15 108.95 55.55 105.85 55.55C96.65 51.25 90.55 65.45 96.45 71.65C99.45 74.85 103.75 74.25 107.15 71.95C107.25 71.85 107.45 71.75 107.55 71.65C111.15 69.05 113.65 64.55 112.75 60.65Z" fill="#ECA127" fill-opacity="1.000000" fill-rule="nonzero"/>
		<path id="Vector" d="M117.75 132.65C114.25 129.35 108.95 130.15 105.95 133.45C104.95 134.25 104.15 135.25 103.55 136.45C103.45 136.55 103.45 136.65 103.35 136.85C103.25 136.95 103.25 136.95 103.15 137.05C99.65 140.75 101.25 146.75 105.55 148.95C107.65 150.05 109.85 150.25 111.95 149.75C114.45 149.45 116.95 148.15 118.45 146.05C119.55 144.55 120.15 142.85 120.25 141.15C120.95 138.25 120.35 135.15 117.75 132.65Z" fill="#ECA127" fill-opacity="1.000000" fill-rule="nonzero"/>
		<path id="Vector" d="M187.15 86.65C184.35 82.15 178.35 82.35 174.85 85.75C174.05 86.55 173.35 87.35 172.75 88.35C169.25 91.55 166.35 96.15 170.45 100.25C170.45 100.25 170.55 100.35 170.65 100.35C172.45 103.85 177.35 104.15 180.85 101.95C182.45 101.25 184.05 100.05 185.15 98.75C188.15 95.35 189.85 90.85 187.15 86.65Z" fill="#ECA127" fill-opacity="1.000000" fill-rule="nonzero"/>
		<path id="Vector" d="M221.25 33.25C219.65 30.15 216.05 28.35 212.25 29.25C210.45 29.65 208.75 30.75 207.25 32.25C203.85 34.45 201.85 40.35 202.95 44.15C203.55 46.15 204.95 47.55 206.55 48.25C207.55 48.85 208.75 49.25 210.15 49.25C213.85 49.25 218.15 46.45 220.65 43.75C223.65 40.75 223.75 36.25 221.25 33.25Z" fill="#ECA127" fill-opacity="1.000000" fill-rule="nonzero"/>
		<path id="Vector" d="M155.95 154.55C155.05 151.45 152.75 148.85 149.75 147.75C149.55 147.55 149.35 147.45 149.05 147.35C144.95 144.85 139.35 145.75 137.15 150.35C136.95 150.75 136.75 151.25 136.55 151.75C135.95 152.35 135.55 153.05 135.25 153.85C133.65 158.35 136.05 164.05 140.45 166.05C142.45 166.95 144.55 166.85 146.45 166.15C152.15 165.95 157.75 161.25 155.95 154.55Z" fill="#ECA127" fill-opacity="1.000000" fill-rule="nonzero"/>
		<path id="Vector" d="M103.95 181.25C99.65 182.05 92.35 184.35 89.95 188.35C88.25 191.25 89.15 195.15 91.55 197.45C95.75 201.25 102.05 202.75 107.05 199.75C113.15 196.05 117.75 185.75 109.35 181.95C107.45 180.95 105.65 180.85 103.95 181.25Z" fill="#ECA127" fill-opacity="1.000000" fill-rule="nonzero"/>
		<path id="Vector" d="M81.25 215.25C80.05 210.25 73.15 207.45 68.45 208.55C65.65 209.15 63.85 211.05 62.65 213.45C61.45 215.25 60.95 217.45 61.25 219.55C61.25 224.25 64.25 228.55 69.55 228.25C72.15 228.15 74.95 226.65 77.05 224.65C80.05 222.35 82.15 218.95 81.25 215.25Z" fill="#ECA127" fill-opacity="1.000000" fill-rule="nonzero"/>
		<path id="Vector" d="M116.05 219.75C114.05 215.95 109.35 214.55 105.35 215.75C104.35 216.05 103.35 216.55 102.35 217.05C97.05 217.65 93.05 223.95 95.65 229.95C97.25 233.65 101.05 235.85 105.05 236.05C109.05 236.25 112.85 233.95 115.05 230.65C117.15 227.55 117.85 223.15 116.05 219.75Z" fill="#ECA127" fill-opacity="1.000000" fill-rule="nonzero"/>
		<path id="Vector" d="M145.55 243.75C143.25 235.25 130.55 233.05 126.05 240.85C124.55 243.45 124.35 246.75 125.55 249.45C125.65 250.85 126.35 252.35 127.55 253.65C134.15 260.35 148.05 252.95 145.55 243.75Z" fill="#ECA127" fill-opacity="1.000000" fill-rule="nonzero"/>
		<path id="Vector" d="M173.45 233.95C172.35 230.45 170.25 227.85 166.95 228.45C163.05 229.15 160.65 235.25 160.25 238.65C159.75 242.95 160.95 250.05 165.95 251.35C168.35 251.95 170.95 250.75 172.55 248.85C174.45 246.15 174.95 239.05 173.45 233.95Z" fill="#ECA127" fill-opacity="1.000000" fill-rule="nonzero"/>
		<path id="Vector" d="M145.75 209.35L145.65 209.35C145.45 209.05 145.25 208.85 145.05 208.65C143.75 207.55 142.55 206.45 141.25 205.45C140.75 204.55 139.95 203.75 138.95 203.35C136.65 202.45 134.35 203.35 132.95 205.35C132.75 205.65 132.55 206.05 132.35 206.35C130.35 209.65 131.25 214.25 134.05 216.95C137.55 220.25 142.75 220.35 146.85 218.15C150.55 216.15 149.65 210.35 145.75 209.35Z" fill="#ECA127" fill-opacity="1.000000" fill-rule="nonzero"/>
		<path id="Vector" d="M190.95 174.65C191.35 172.75 190.45 170.75 188.05 169.95C187.95 169.95 187.85 169.85 187.75 169.85C182.95 166.35 174.65 167.45 171.65 172.85C167.95 179.65 175.05 185.45 181.45 184.95C183.55 185.35 185.75 184.95 187.65 183.65C190.55 181.75 191.85 178.05 190.95 174.65Z" fill="#ECA127" fill-opacity="1.000000" fill-rule="nonzero"/>
		<path id="Vector" d="M221.65 151.25C218.75 148.35 213.85 147.75 210.25 149.95C206.35 152.35 203.75 157.15 206.15 161.55C207.15 163.45 208.75 164.65 210.55 165.35C211.05 165.65 211.55 165.95 212.05 166.15C216.15 167.75 220.85 166.15 222.95 162.35C225.15 158.55 224.65 154.15 221.65 151.25Z" fill="#ECA127" fill-opacity="1.000000" fill-rule="nonzero"/>
		<path id="Vector" d="M190.65 50.75C188.65 48.35 185.05 47.95 182.45 49.35C179.65 50.85 178.15 54.15 178.95 57.15C179.85 60.35 183.15 62.55 186.45 62.15C188.15 61.95 189.55 61.15 190.55 59.95C190.95 59.65 191.25 59.25 191.55 58.75C193.15 56.15 192.55 52.95 190.65 50.75Z" fill="#ECA127" fill-opacity="1.000000" fill-rule="nonzero"/>
		<path id="Vector" d="M150.65 110.05C147.65 108.35 143.95 108.95 141.65 111.55C141.35 111.95 141.05 112.35 140.75 112.75C139.45 114.65 138.95 117.15 139.45 119.25C140.25 122.55 143.75 124.55 146.95 124.25C150.35 123.95 153.15 121.85 154.05 118.55C154.85 115.45 153.45 111.65 150.65 110.05Z" fill="#ECA127" fill-opacity="1.000000" fill-rule="nonzero"/>
		<path id="Vector" d="M104.05 30.65C100.65 27.45 95.15 28.45 93.05 32.55C90.75 37.05 93.55 42.75 98.85 42.75C99.85 42.75 100.85 42.45 101.75 42.05C102.15 41.95 102.65 41.75 103.05 41.45C106.75 39.05 107.25 33.75 104.05 30.65Z" fill="#ECA127" fill-opacity="1.000000" fill-rule="nonzero"/>
		<path id="Vector" d="M86.95 81.15C86.85 78.75 84.95 76.45 82.45 76.65C81.45 76.65 80.55 76.95 79.75 77.45C79.65 77.45 79.65 77.45 79.55 77.45C77.75 77.95 76.15 79.45 75.75 81.35C75.15 83.65 76.35 86.15 78.45 87.15C78.55 87.25 78.65 87.25 78.75 87.35C80.35 88.25 82.45 88.25 83.95 87.25C85.05 86.55 85.95 85.35 86.35 84.05C86.75 83.15 86.95 82.15 86.95 81.15Z" fill="#ECA127" fill-opacity="1.000000" fill-rule="nonzero"/>
		<path id="Vector" d="M31.55 91.15C30.45 89.75 28.75 89.25 27.05 89.55C26.15 89.65 25.45 89.85 24.65 90.35C24.15 90.65 23.55 91.15 23.15 91.55C22.85 91.95 22.45 92.35 22.25 92.85C22.05 93.35 21.75 93.85 21.65 94.35C21.45 94.95 21.45 95.55 21.55 96.15C21.55 96.75 21.75 97.25 22.05 97.85C22.55 98.75 23.65 99.65 24.75 99.85C25.45 100.05 26.25 100.05 26.95 99.85C27.05 99.85 27.15 99.85 27.25 99.85C29.15 99.75 30.95 98.85 31.85 97.15C32.95 95.15 32.85 92.85 31.55 91.15Z" fill="#ECA127" fill-opacity="1.000000" fill-rule="nonzero"/>
		<path id="Vector" d="M46.45 145.15C46.35 144.05 45.95 143.05 45.05 142.25C44.35 141.55 43.65 141.15 42.75 140.85C41.45 140.45 40.05 140.65 38.95 141.35C37.95 141.85 37.35 142.75 36.85 143.75C36.55 144.15 36.25 144.65 36.15 145.15C35.95 145.85 35.95 146.55 35.95 147.25C35.85 148.25 36.45 149.55 37.15 150.25C37.95 151.05 38.95 151.45 40.15 151.45C41.35 151.45 42.85 151.15 43.85 150.45C44.65 149.95 45.35 149.25 45.75 148.45C46.35 147.35 46.55 146.35 46.45 145.15Z" fill="#ECA127" fill-opacity="1.000000" fill-rule="nonzero"/>
		<path id="Vector" d="M99.85 161.65C99.55 160.45 98.85 159.55 97.75 158.85C97.35 158.65 96.95 158.45 96.55 158.35C96.15 158.25 95.65 158.15 95.25 158.15C94.85 158.15 94.25 158.25 93.95 158.35C93.55 158.45 93.05 158.65 92.75 158.85C92.15 159.15 91.45 159.85 91.05 160.55L90.95 160.65C90.15 161.55 89.65 162.55 89.65 163.75C89.65 164.15 89.65 164.65 89.85 165.05C90.05 165.75 90.45 166.45 90.95 166.95C91.45 167.45 91.95 167.75 92.55 167.95C93.25 168.25 93.75 168.35 94.55 168.35C94.95 168.35 95.35 168.25 95.75 168.15C95.85 168.15 95.85 168.15 95.95 168.15C96.85 167.85 97.75 167.35 98.45 166.65C98.75 166.35 99.15 165.95 99.35 165.45C99.75 164.65 99.85 164.35 99.95 163.55C100.05 162.85 100.05 162.35 99.85 161.65Z" fill="#ECA127" fill-opacity="1.000000" fill-rule="nonzero"/>
		<path id="Vector" d="M213.35 62.25C213.35 61.35 213.15 60.65 212.75 59.95C212.45 59.45 212.15 59.05 211.65 58.75C211.25 58.35 210.75 58.15 210.25 58.05C209.65 57.85 209.15 57.85 208.55 57.95C208.25 57.95 207.95 58.05 207.55 58.15C207.45 58.15 207.45 58.15 207.35 58.15C206.85 58.25 206.35 58.55 205.95 58.85C205.75 58.95 205.65 59.05 205.45 59.25C205.35 59.35 205.25 59.55 205.15 59.65C205.05 59.75 204.95 59.95 204.85 60.05C204.85 60.05 204.85 60.05 204.85 60.15C204.75 60.45 204.55 60.85 204.45 61.15C204.45 61.15 204.45 61.15 204.45 61.25C204.35 61.65 204.25 62.05 204.25 62.45C204.25 62.55 204.35 63.45 204.45 63.55C204.45 63.75 204.65 63.95 204.65 64.05C204.85 64.65 204.95 64.95 205.55 65.35C205.85 65.55 206.15 65.75 206.35 65.95C206.65 66.15 207.05 66.35 207.45 66.45C207.65 66.55 207.85 66.55 208.05 66.55C208.15 66.55 208.45 66.65 208.65 66.65C209.05 66.65 209.35 66.55 209.75 66.55L209.85 66.55C210.15 66.45 210.55 66.25 210.85 66.15C210.85 66.15 210.85 66.15 210.95 66.15C211.15 66.05 211.35 65.85 211.45 65.75C211.65 65.65 211.85 65.55 211.95 65.35C212.05 65.25 212.15 65.05 212.25 64.95C212.45 64.75 212.55 64.55 212.65 64.35C213.15 63.75 213.35 63.05 213.35 62.25Z" fill="#ECA127" fill-opacity="1.000000" fill-rule="nonzero"/>
		<path id="Vector" d="M242.05 15.45C241.55 13.75 240.25 12.45 238.65 11.95C238.15 11.85 237.55 11.75 237.05 11.75C236.15 11.85 235.35 11.95 234.55 12.45C233.85 12.85 233.15 13.45 232.75 14.25C232.25 15.05 232.15 15.85 232.05 16.75C232.05 17.05 232.05 17.35 232.15 17.65C232.15 17.85 232.25 18.05 232.25 18.25C232.75 19.95 234.05 21.25 235.75 21.65C237.45 22.15 239.35 21.55 240.65 20.25C241.95 19.15 242.55 17.25 242.05 15.45Z" fill="#ECA127" fill-opacity="1.000000" fill-rule="nonzero"/>
		<path id="Vector" d="M134.35 181.15C134.35 180.85 134.25 180.45 134.25 180.15C134.15 179.65 133.85 179.15 133.55 178.85C133.35 178.55 133.15 178.35 132.85 178.15C132.75 178.05 132.55 177.95 132.35 177.85C132.05 177.65 131.85 177.55 131.45 177.45C131.45 177.45 131.45 177.45 131.35 177.45C131.45 177.45 131.55 177.55 131.65 177.55C131.45 177.45 131.15 177.35 130.95 177.35C130.55 177.25 130.15 177.15 129.75 177.15C129.35 177.15 128.85 177.25 128.45 177.35C128.15 177.45 127.65 177.65 127.35 177.75C126.75 178.05 126.35 178.45 125.95 179.05C125.55 179.65 125.25 179.95 125.05 180.75L125.05 180.85C124.95 181.25 124.95 181.55 124.85 181.95C124.95 182.35 124.95 182.65 125.05 183.05C125.15 183.45 125.35 183.75 125.55 184.15C125.75 184.55 126.05 184.85 126.35 185.15C126.45 185.25 126.55 185.45 126.65 185.55C126.95 185.75 127.25 185.95 127.45 186.15C127.95 186.45 128.45 186.65 128.95 186.65C129.35 186.75 129.65 186.75 130.05 186.65C130.45 186.65 130.75 186.55 131.05 186.35C131.35 186.25 131.65 186.05 131.95 185.85C132.35 185.55 132.75 185.15 133.05 184.65C133.15 184.55 133.25 184.35 133.25 184.25C133.65 183.75 133.95 183.25 134.15 182.65C134.25 182.15 134.25 181.65 134.35 181.15Z" fill="#ECA127" fill-opacity="1.000000" fill-rule="nonzero"/>
		<path id="Vector" d="M139.05 131.45C138.95 130.95 138.65 130.45 138.25 130.05C138.05 129.65 137.75 129.45 137.35 129.15C137.15 128.95 137.05 128.85 136.85 128.75C136.15 128.25 135.25 127.85 134.45 127.85C133.35 127.85 132.35 128.25 131.55 129.05C130.05 130.55 129.55 132.65 130.05 134.65L130.45 135.65C130.75 136.15 131.05 136.55 131.55 136.85C131.85 137.15 132.15 137.25 132.45 137.35C132.95 137.65 133.45 137.75 134.05 137.75C134.15 137.75 134.15 137.75 134.25 137.75C134.65 137.75 134.95 137.65 135.35 137.65C135.75 137.55 136.05 137.45 136.55 137.15C136.95 136.95 137.35 136.65 137.75 136.25C138.35 135.65 138.75 134.95 138.95 134.05C139.35 133.05 139.25 132.35 139.05 131.45Z" fill="#ECA127" fill-opacity="1.000000" fill-rule="nonzero"/>
		<path id="Vector" d="M195.85 154.95C195.45 153.45 194.25 152.15 192.65 151.85C191.05 151.55 189.45 151.85 188.25 153.05C187.65 153.65 187.25 154.25 187.05 155.05C186.85 155.75 186.85 156.45 186.95 157.25C186.95 158.65 187.65 160.15 188.95 160.85C189.95 161.35 191.05 161.55 192.15 161.25C192.55 161.15 193.05 160.95 193.35 160.75C193.75 160.55 194.15 160.25 194.35 159.85C194.95 159.15 195.15 158.75 195.55 157.85C196.05 156.85 196.05 155.75 195.85 154.95Z" fill="#ECA127" fill-opacity="1.000000" fill-rule="nonzero"/>
		<path id="Vector" d="M249.05 155.05C248.15 153.45 246.35 152.55 244.55 152.55C243.65 152.55 242.65 152.75 241.95 153.25C241.55 153.45 241.25 153.75 240.85 154.05C240.25 154.65 239.95 155.35 239.65 156.05C239.45 156.55 239.45 157.15 239.55 157.65C239.55 158.25 239.75 158.75 240.05 159.15C240.15 159.25 240.15 159.35 240.25 159.45C240.35 159.95 240.65 160.55 240.95 160.95C241.55 161.65 242.15 162.05 243.05 162.45C243.25 162.55 243.55 162.55 243.75 162.55C243.95 162.55 244.25 162.65 244.45 162.65C244.95 162.65 245.45 162.55 245.85 162.45C246.75 162.25 247.55 161.65 248.15 161.05C249.75 159.55 250.15 157.05 249.05 155.05Z" fill="#ECA127" fill-opacity="1.000000" fill-rule="nonzero"/>
		<path id="Vector" d="M77.15 184.55C76.95 183.75 76.75 183.55 76.35 183.05C75.95 182.55 75.55 182.05 74.95 181.75C74.15 181.35 73.55 181.15 72.55 181.15C70.95 181.15 69.25 181.95 68.45 183.45C67.95 184.35 67.75 185.45 68.05 186.45C68.05 186.85 68.15 187.25 68.25 187.65C68.35 188.15 68.65 188.65 68.95 189.05C69.25 189.45 69.65 189.85 70.05 190.15C70.35 190.25 70.75 190.45 71.05 190.55C71.75 190.75 72.45 190.75 73.25 190.55C73.75 190.45 74.25 190.25 74.75 189.95C75.45 189.45 76.05 188.95 76.45 188.25C76.75 187.85 76.95 187.35 77.05 186.85C77.35 186.05 77.35 185.35 77.15 184.55Z" fill="#ECA127" fill-opacity="1.000000" fill-rule="nonzero"/>
  </symbol>
</svg>