
<svg width="260" height="246" viewBox="0 0 260 246" fill="none" xmlns="http://www.w3.org/2000/svg">
	<symbol id='img_5_ID'>
		<path id="Vector" d="M19.99 24.51C31.29 15.71 43.99 8.51 57.59 4.11C69.59 0.31 84.99 -3.39 95.69 5.41C118.19 23.81 109.29 61.21 163.09 37.71C216.89 14.21 220.99 30.01 230.19 47.01C239.39 64.01 246.49 103.11 198.19 111.11C176.79 116.41 166.19 136.51 169.29 155.21C171.49 168.81 176.69 196.41 169.99 207.31C158.99 225.11 139.99 239.81 119.49 244.71C86.19 252.81 26.09 235.61 26.09 193.41C26.09 183.11 29.59 173.11 34.49 164.11C44.39 146.41 68.49 128.41 43.99 107.11C31.49 96.31 16.29 87.61 6.39 74.11C-7.71 54.71 3.59 37.31 19.99 24.51Z" fill="#BBE5FF" fill-opacity="1.000000" fill-rule="nonzero"/>
		<path id="Vector" d="M115.89 15.91C141.09 43.51 185.29 16.21 197.59 13.51C209.89 10.81 249.99 2.61 258.19 52.61C266.39 102.61 244.59 113.51 240.49 114.91C236.39 116.31 196.59 126.51 193.89 151.01C191.19 175.51 207.49 231.71 150.69 227.91C93.79 224.21 65.29 225.91 57.79 204.81C50.29 183.71 66.69 175.91 83.29 141.51C99.99 107.11 80.59 92.81 69.29 86.01C57.99 79.31 12.29 52.01 53.89 19.01C53.89 19.01 90.69 -11.59 115.89 15.91Z" fill="none" stroke="#303030" stroke-opacity="1.000000" stroke-width="1.000000" stroke-linejoin="round"/>
	</symbol>
</svg>
