
<svg width="132" height="127" viewBox="0 0 132 127" fill="none" xmlns="http://www.w3.org/2000/svg">
	<symbol id='img_6_ID'>
		<path id="Vector" d="M106.57 111.78C106.19 110.73 105.59 109.76 104.84 108.93C103.79 107.81 101.83 107.89 101.08 109.31C99.5 112.6 95.14 113.43 91.99 114.47C88.38 115.67 84.85 116.94 81.39 118.44C78.16 119.79 83.35 122.71 84.55 123.53C86.28 124.73 88.16 125.85 90.11 126.6C94.69 128.4 99.73 128.32 103.71 124.2C106.57 121.21 108.07 115.9 106.57 111.78Z" fill="#FFCAEB" fill-opacity="1.000000" fill-rule="nonzero"/>
		<path id="Vector" d="M93.42 115.82C99.13 113.2 104.46 109.76 109.27 105.72C123.62 93.44 133.54 76.3 132.86 56.99C131.36 17.46 127.98 -0.8 107.77 0.02C87.55 0.85 89.58 32.51 90.11 48.53C90.63 64.55 88.83 82.44 75.76 62.3C68.32 51.07 60.13 26.59 57.35 21.5C54.57 16.41 42.54 -5.74 27.67 2.64C12.86 11.03 33.3 37.52 36.23 40.07C39.16 42.61 61.18 70.68 56.82 84.01C52.76 94.56 31.72 78.02 26.09 70.91C20.45 63.8 -0.74 43.89 0.01 67.61C0.62 85.73 13.39 103.25 28.34 112.6C48.03 124.95 72.98 125.33 93.42 115.82Z" fill="#BBE5FF" fill-opacity="1.000000" fill-rule="nonzero"/>
		<path id="Vector" d="M103.94 15.97C103.56 14.54 101.53 14.32 101.01 15.89C100.7 16.79 100.63 17.84 100.48 18.81C100.33 19.86 100.18 20.83 100.03 21.88C99.8 23.83 99.5 25.7 99.28 27.64C99.2 28.24 99.65 28.92 100.18 29.21C100.78 29.59 101.46 29.51 102.06 29.21C104.24 28.17 104.46 25.55 104.61 23.38C104.69 22.1 104.76 20.91 104.84 19.63C104.91 18.29 105.14 16.71 103.94 15.97Z" fill="#FFCAEB" fill-opacity="1.000000" fill-rule="nonzero"/>
		<path id="Vector" d="M116.26 36.03C114.61 39.77 114.3 44.34 114.46 48.38C114.46 48.9 114.68 49.35 114.98 49.65C115.13 50.4 115.81 51 116.63 51C117.54 51 118.06 50.4 118.21 49.65C118.44 49.35 118.59 48.9 118.59 48.38C118.44 44.41 119.26 40.82 119.64 36.92C119.79 35.2 116.93 34.38 116.26 36.03Z" fill="#FFCAEB" fill-opacity="1.000000" fill-rule="nonzero"/>
		<path id="Vector" d="M117.84 19.93C117.31 18.96 116.71 18.06 116.18 17.09C115.66 16.12 115.13 15.14 114.61 14.17C114.08 13.2 113.63 12.22 113.1 11.25C112.88 10.8 112.65 10.28 112.35 9.83C111.9 9.08 110.7 8.63 109.95 9.38C108.89 10.5 109.95 12 110.4 13.2C110.77 14.17 111.22 15.14 111.67 16.12C112.13 17.09 112.58 17.99 113.1 18.96C113.63 19.93 114.08 20.91 114.68 21.8C115.21 22.55 116.26 23 117.09 22.48C118.06 21.88 118.29 20.83 117.84 19.93Z" fill="#FFCAEB" fill-opacity="1.000000" fill-rule="nonzero"/>
		<path id="Vector" d="M106.87 64.99C106.11 61.48 106.26 57.73 105.29 54.29C105.21 52.19 101.76 52.27 101.53 54.52C101.38 56.46 101.68 58.56 101.83 60.5C101.98 62.37 102.06 64.32 102.51 66.19C103.26 69.04 107.47 67.84 106.87 64.99Z" fill="#FFCAEB" fill-opacity="1.000000" fill-rule="nonzero"/>
		<path id="Vector" d="M118.51 70.46C118.29 68.74 115.96 68.89 115.13 70.01C114 71.58 113.18 73.3 112.05 74.88C110.92 76.52 110.17 78.24 110.02 80.26C109.87 83.18 114.46 83.18 114.61 80.26C114.76 76.6 119.11 74.5 118.51 70.46Z" fill="#FFCAEB" fill-opacity="1.000000" fill-rule="nonzero"/>
		<path id="Vector" d="M107.47 35.95C105.81 37 104.24 38.12 102.73 39.39C101.31 40.59 99.73 41.79 99.05 43.59C98.52 44.86 100.1 46.36 101.31 45.83C102.96 45.23 104.09 43.89 105.44 42.84C106.79 41.72 108.22 40.74 109.72 39.77C112.2 38.27 109.95 34.3 107.47 35.95Z" fill="#FFCAEB" fill-opacity="1.000000" fill-rule="nonzero"/>
		<path id="Vector" d="M96.27 77.72C95.59 75.7 92.74 76.07 92.59 78.24C92.36 81.99 93.04 85.88 93.11 89.7C93.11 92.69 97.92 92.69 97.77 89.7C97.62 85.8 97.62 81.39 96.27 77.72Z" fill="#FFCAEB" fill-opacity="1.000000" fill-rule="nonzero"/>
		<path id="Vector" d="M102.88 93.74C100.63 96.73 98.3 99.73 96.5 103.1C95.59 104.82 97.77 106.54 99.2 105.19C102.13 102.42 104.39 99.2 106.87 96.06C108.59 93.66 104.61 91.42 102.88 93.74Z" fill="#FFCAEB" fill-opacity="1.000000" fill-rule="nonzero"/>
		<path id="Vector" d="M44.72 23C43.6 21.95 42.47 20.91 41.27 19.86C40.22 18.88 38.94 17.46 37.43 17.16C36.08 16.94 35.03 17.91 35.33 19.26C35.63 20.76 37.13 21.88 38.11 22.93C39.24 24.05 40.37 25.1 41.42 26.22C43.6 28.24 46.83 25.02 44.72 23Z" fill="#FFCAEB" fill-opacity="1.000000" fill-rule="nonzero"/>
		<path id="Vector" d="M47.65 39.99C46.6 38.72 45.4 37.52 44.2 36.4C43 35.28 41.72 34.01 40.22 33.33C38.26 32.36 36.61 34.6 37.96 36.33C38.94 37.52 40.29 38.5 41.34 39.62C42.47 40.74 43.52 41.94 44.57 43.06C46.53 45.01 49.31 42.09 47.65 39.99Z" fill="#FFCAEB" fill-opacity="1.000000" fill-rule="nonzero"/>
		<path id="Vector" d="M57.72 45.16C56.6 41.72 56.15 37.9 54.72 34.53C53.97 32.81 51.64 33.93 51.49 35.43C51.11 38.95 52.54 42.99 53.59 46.28C54.49 48.83 58.62 47.7 57.72 45.16Z" fill="#FFCAEB" fill-opacity="1.000000" fill-rule="nonzero"/>
		<path id="Vector" d="M64.34 63.87C62.31 61.93 60.73 59.23 58.1 57.96C56.6 57.21 54.79 58.78 55.69 60.35C56.45 61.7 57.8 62.75 58.85 63.87C59.83 64.99 60.65 66.27 61.86 67.09C63.81 68.36 65.99 65.44 64.34 63.87Z" fill="#FFCAEB" fill-opacity="1.000000" fill-rule="nonzero"/>
		<path id="Vector" d="M78.09 85.28C77.64 81.61 77.64 77.87 77.03 74.2C76.66 71.88 73.28 72.63 73.13 74.73C72.83 78.17 73.35 81.84 73.8 85.28C74.1 87.97 78.39 88.05 78.09 85.28Z" fill="#FFCAEB" fill-opacity="1.000000" fill-rule="nonzero"/>
		<path id="Vector" d="M74.63 94.79C72.53 91.12 69.9 87.6 66.74 84.76C65.39 83.48 62.76 85.21 64.03 86.85C66.44 90.15 68.92 93.36 71.1 96.88C72.53 99.05 75.91 97.11 74.63 94.79Z" fill="#FFCAEB" fill-opacity="1.000000" fill-rule="nonzero"/>
		<path id="Vector" d="M86.8 93.96C86.28 91.87 83.2 92.39 83.12 94.49C82.97 96.66 83.65 98.68 84.17 100.78C84.77 103.17 85 105.57 85 108.04C85 110.73 89.13 110.73 89.21 108.04C89.28 103.17 88.01 98.6 86.8 93.96Z" fill="#FFCAEB" fill-opacity="1.000000" fill-rule="nonzero"/>
		<path id="Vector" d="M20.3 84.46C18.87 82.96 17.07 81.84 15.42 80.64C13.77 79.52 11.81 77.65 9.86 77.35C8.43 77.12 7.23 78.47 7.98 79.82C8.96 81.46 10.99 82.59 12.49 83.71C14.14 84.91 15.72 86.18 17.3 87.53C19.25 89.25 22.18 86.4 20.3 84.46Z" fill="#FFCAEB" fill-opacity="1.000000" fill-rule="nonzero"/>
		<path id="Vector" d="M32.93 92.39C32.17 90.15 31.42 87.9 30.6 85.73C29.92 83.78 29.39 81.69 27.97 80.12C26.99 78.99 25.26 79.97 25.19 81.24C25.04 83.33 26.01 85.28 26.61 87.23C27.29 89.32 27.97 91.42 28.72 93.51C29.62 96.13 33.83 95.09 32.93 92.39Z" fill="#FFCAEB" fill-opacity="1.000000" fill-rule="nonzero"/>
		<path id="Vector" d="M34.73 101.6C30.67 99.65 26.16 98.68 21.96 97.18C20.3 96.58 18.87 98.98 20.23 100.18C23.83 103.32 28.34 103.54 32.4 105.64C35.03 106.91 37.36 102.87 34.73 101.6Z" fill="#FFCAEB" fill-opacity="1.000000" fill-rule="nonzero"/>
		<path id="Vector" d="M53.06 101.3C51.94 99.65 50.81 98.08 49.76 96.36C48.78 94.71 47.95 92.99 46.68 91.57C45.32 90.07 43.22 91.72 43.52 93.36C43.9 95.24 44.95 96.96 45.93 98.6C46.9 100.33 47.95 101.97 49.16 103.62C50.81 105.94 54.79 103.77 53.06 101.3Z" fill="#FFCAEB" fill-opacity="1.000000" fill-rule="nonzero"/>
		<path id="Vector" d="M59.68 109.91C55.39 109.61 50.21 108.78 46 109.83C44.2 110.28 44.5 112.6 46 113.13C50.06 114.62 55.39 114.32 59.68 114.47C62.68 114.62 62.68 110.06 59.68 109.91Z" fill="#FFCAEB" fill-opacity="1.000000" fill-rule="nonzero"/>
		<path id="Vector" d="M75.91 110.28C75.83 110.13 75.23 109.38 75.08 109.23C74.86 108.86 74.63 108.49 74.4 108.11C73.73 107.06 72.83 106.16 71.92 105.34C70.05 103.62 68.09 101.97 66.29 100.1C65.01 98.83 62.68 100.1 63.21 101.9C63.96 104.44 65.99 106.09 67.79 107.81C68.69 108.63 69.6 109.46 70.35 110.43C71.1 111.48 71.47 112.45 72.6 113.28C73.43 113.87 74.78 113.58 75.46 112.9C75.53 112.83 75.53 112.75 75.61 112.75C76.28 112.15 76.36 111.11 75.91 110.28Z" fill="#FFCAEB" fill-opacity="1.000000" fill-rule="nonzero"/>
		<path id="Vector" d="M125.73 60.35C125.35 58.63 124.97 56.91 124.37 55.19C123.7 53.24 120.32 53.32 120.47 55.71C120.62 57.51 120.99 59.38 121.29 61.18C121.59 62.97 121.82 64.85 122.57 66.49C123.55 68.51 126.63 67.39 126.63 65.37C126.7 63.72 126.1 62 125.73 60.35Z" fill="#FFCAEB" fill-opacity="1.000000" fill-rule="nonzero"/>
	</symbol>
</svg>
