
<svg width="164" height="310" viewBox="0 0 164 310" fill="none" xmlns="http://www.w3.org/2000/svg">
	<symbol id='img_8_ID'>
		<path id="Vector" d="M107.23 69.9C100.03 77.19 89.33 82 81.03 87.2C68.33 95.3 55.13 103.7 44.03 114C26.03 130.7 1.13 148 0.13 149.1C-0.87 150.1 3.83 175.3 9.63 175.7C15.43 172.6 39.93 152.6 39.93 152.6C39.93 152.6 25.93 184.6 22.93 189C19.83 193.4 3.23 219.6 2.13 221C2.43 224.1 3.83 237.9 20.13 243.4C24.23 239.7 39.23 216.9 39.23 216.9C38.33 218.2 39.33 224.2 39.33 226.1C39.53 241 38.63 256.4 36.43 271.4C35.63 276.6 34.83 281.79 33.93 287C33.33 290.7 32.03 294.29 31.33 298.1C31.03 299.5 30.13 302.2 30.93 303.5C33.23 307.4 45.53 308.7 49.53 309.4C53.83 310.1 58.23 310.4 62.53 310C65.63 309.7 73.43 309.79 75.23 306.6C75.53 306.1 75.63 305.4 75.73 304.79C78.33 290.9 80.53 276.9 82.73 262.9C82.73 262.9 83.73 229.2 84.13 227.2C83.83 228.7 89.73 237.4 90.73 239.3C93.13 244.2 95.43 249.2 97.73 254.2C98.53 256 99.13 259.6 101.53 259.79C102.33 259.9 103.23 259.6 103.93 259.29C110.43 256.79 116.93 254.3 123.03 251.1C133.83 245.3 122.93 234 119.43 226C117.93 222.4 116.33 218.8 115.03 215.1C114.83 214.4 113.63 208.9 113.23 208.7C115.23 209.7 131.23 223.2 132.63 224.6C134.93 226.9 138.33 228.6 141.03 230.4C149.23 235.7 152.83 228.3 157.03 222.1C159.03 219.1 160.93 216.1 162.93 213.1C166.03 208.3 163.73 203.7 160.73 199.6C157.33 194.9 154.13 190 151.03 185.1C142.43 171 135.23 156.1 130.23 140.3C126.23 127.8 122.43 115.2 118.93 102.5C117.13 95.8 113.43 89.2 113.63 82.1C113.93 74.5 119.33 68.9 123.03 62.7C130.93 49.7 138.93 36.7 146.83 23.7C147.53 22.5 158.03 4 158.73 4.29L147.13 0C135.33 21.2 123.43 42.5 111.63 63.7C110.73 65.9 109.13 68 107.23 69.9Z" fill="#ECA127" fill-opacity="1.000000" fill-rule="nonzero"/>
		<path id="Vector" d="M109.93 168.6L121.83 156.89L142.13 206.1L109.93 168.6Z" fill="#B988CA" fill-opacity="1.000000" fill-rule="nonzero"/>
		<path id="Vector" d="M82.13 199.6L98.03 190.3L109.93 244.8L82.13 199.6Z" fill="#B988CA" fill-opacity="1.000000" fill-rule="nonzero"/>
		<path id="Vector" d="M58.23 273.2L56.93 221.1L70.43 223.8L58.23 273.2Z" fill="#B988CA" fill-opacity="1.000000" fill-rule="nonzero"/>
		<path id="Vector" d="M18.83 219.5L54.93 160.2L63.63 169.9L18.83 219.5Z" fill="#B988CA" fill-opacity="1.000000" fill-rule="nonzero"/>
		<path id="Vector" d="M15.13 152.6C15.93 151.1 61.13 112.9 61.13 112.9L62.43 125.2L15.13 152.6Z" fill="#B988CA" fill-opacity="1.000000" fill-rule="nonzero"/>
	</symbol>
</svg>
