
<svg width="133" height="160" viewBox="0 0 133 160" fill="none" xmlns="http://www.w3.org/2000/svg">
	<symbol id='doodle_1_ID'>
		<defs/>
		<path id="Vector" d="M114.02 113.17C113.52 106.82 111.19 101.92 108.04 97.92C113.69 94.29 119 89.75 123.49 84.49C130.47 76.68 136.62 65.06 130.47 54.53C127.48 49.27 122.33 45.45 116.68 42.55C118.67 37.47 119.67 31.84 119 26.39C117.34 12.23 104.88 4.24 93.08 1.34C80.62 -1.75 67.16 0.61 56.03 7.15C52.37 9.33 37.25 19.49 45.23 25.12C46.39 25.85 47.22 24.03 46.23 23.3C39.25 18.04 66.16 6.24 68.32 5.69C77.3 3.33 86.93 3.7 95.58 6.78C105.05 10.05 114.35 17.5 114.68 29.3C114.68 33.11 114.02 36.92 112.52 40.55C108.7 38.92 104.88 37.65 101.39 36.74C89.59 33.47 76.97 32.93 65.17 36.56C57.36 39.1 42.74 45.27 44.9 56.71C47.39 69.42 62.68 68.51 71.65 68.15C83.61 67.6 96.41 65.61 106.21 57.26C109.03 54.89 111.53 51.81 113.69 48.54C120.83 52.17 128.48 57.8 126.65 67.06C124.82 76.14 115.68 84.12 109.03 89.03C107.21 90.3 105.38 91.57 103.39 92.84C99.56 89.75 95.24 87.21 90.59 85.03C77.13 78.5 62.51 74.14 47.72 73.05C37.59 72.32 28.78 78.5 30.77 90.84C32.93 103.73 45.89 108.09 56.2 109.72C71.48 112.08 87.43 109 101.39 101.74C106.21 107.36 108.7 114.44 106.04 123.88C100.23 144.94 74.47 151.3 56.86 150.94C37.09 150.39 18.98 142.04 5.52 126.06C3.02 123.16 -1.3 126.97 0.37 130.42C13.49 155.66 42.24 162.74 67 159.11C88.6 156.2 116.35 142.04 114.02 113.17ZM101.56 54.35C94.25 59.8 85.11 61.79 76.47 62.34C72.65 62.7 68.82 62.7 65 62.52C62.34 62.52 54.7 62.52 53.54 60.34C53.7 56.53 53.87 52.72 54.2 49.09C55.53 48.18 57.03 47.27 58.36 46.54C73.64 38.37 92.09 39.64 107.71 46.18C108.04 46.36 108.54 46.54 109.03 46.73C106.87 49.63 104.38 52.35 101.56 54.35ZM62.84 103.01C55.2 102.46 38.91 100.46 38.08 89.57C37.09 75.59 60.85 83.4 67.66 85.21C76.13 87.57 87.43 91.02 95.74 97.01C85.27 101.55 73.97 103.73 62.84 103.01Z" fill="#0023CD" fill-opacity="0.450000" fill-rule="nonzero"/>
	</symbol>
</svg>
