
<svg width="90" height="121" viewBox="0 0 90 121" fill="none" xmlns="http://www.w3.org/2000/svg">
	<symbol id='doodle_2_ID'>
		<defs/>
		<path id="Vector" d="M88.57 117.57C72.24 114.66 37.14 115.57 43.39 98.46C46.39 90.46 53.19 83.54 62.17 78.26C71.42 78.26 78.23 76.08 76.32 69.89C75.78 68.44 73.33 68.07 71.7 68.62C67.89 69.89 64.35 71.53 60.54 73.53C53.46 73.53 45.3 72.44 44.21 72.26C31.42 69.71 24.35 63.71 30.06 54.79C35.78 45.69 46.12 38.05 58.09 32.59C60.27 31.5 58.91 28.95 56.18 29.49C43.39 31.68 29.24 33.13 17.27 28.22C11.83 26.04 5.57 21.85 4.75 17.3C5.3 14.39 5.84 11.48 6.39 8.57C9.38 4.02 14.55 2.2 21.35 3.11C20.26 4.02 22.71 4.93 23.53 4.02C25.16 2.56 25.16 2.56 24.35 0.74C24.07 0.38 23.53 0.01 22.99 0.01C6.66 -0.53 -4.5 10.75 1.76 20.76C9.38 33.13 28.7 35.32 46.66 34.04C30.88 42.78 11.56 58.43 24.89 69.71C28.43 72.62 41.49 76.44 53.46 77.72C42.58 85 34.41 94.46 34.96 104.29C35.78 119.39 71.7 122.67 88.57 120.3C90.47 119.94 90.47 117.93 88.57 117.57Z" fill="#000CB5" fill-opacity="0.450000" fill-rule="nonzero"/>
	</symbol>
</svg>
