<svg width="75" height="75" viewBox="0 0 75 75" fill="none" xmlns="http://www.w3.org/2000/svg">
	<symbol id='pushpin_right_ID'>
		<defs>
			<linearGradient x1="16.011526" y1="60.492958" x2="18.805328" y2="63.286762" id="paint_linear_9_10_0" gradientUnits="userSpaceOnUse">
				<stop stop-color="#F5F5F5"/>
				<stop offset="0.145500" stop-color="#EFEFEF"/>
				<stop offset="0.336800" stop-color="#DFDFDF"/>
				<stop offset="0.553500" stop-color="#C3C3C3"/>
				<stop offset="0.787200" stop-color="#9E9E9E"/>
				<stop offset="1.000000" stop-color="#757575"/>
			</linearGradient>
			<linearGradient x1="27.870640" y1="16.397852" x2="61.693691" y2="50.220894" id="paint_linear_9_12_0" gradientUnits="userSpaceOnUse">
				<stop offset="0.004845" stop-color="#F44336"/>
				<stop offset="0.194300" stop-color="#EC3E33"/>
				<stop offset="0.495600" stop-color="#D4302C"/>
				<stop offset="0.649600" stop-color="#C62828"/>
			</linearGradient>
			<linearGradient x1="46.546108" y1="17.291496" x2="75.456932" y2="17.291496" id="paint_linear_9_14_0" gradientUnits="userSpaceOnUse">
				<stop offset="0.002030" stop-color="#FF5252"/>
				<stop offset="0.074200" stop-color="#F34949"/>
				<stop offset="0.267400" stop-color="#D93535"/>
				<stop offset="0.465300" stop-color="#C62727"/>
				<stop offset="0.669200" stop-color="#BB1F1F"/>
				<stop offset="0.888200" stop-color="#B71C1C"/>
			</linearGradient>
			<linearGradient x1="16.573336" y1="44.583435" x2="51.935326" y2="43.839146" id="paint_linear_9_16_0" gradientUnits="userSpaceOnUse">
				<stop offset="0.002030" stop-color="#FF5252"/>
				<stop offset="0.186700" stop-color="#E13B3B"/>
				<stop offset="0.373900" stop-color="#CA2A2A"/>
				<stop offset="0.550200" stop-color="#BC2020"/>
				<stop offset="0.702900" stop-color="#B71C1C"/>
			</linearGradient>
			<linearGradient x1="37.979092" y1="26.057241" x2="51.956264" y2="40.034363" id="paint_linear_9_18_0" gradientUnits="userSpaceOnUse">
				<stop offset="0.004845" stop-color="#F44336"/>
				<stop offset="0.145400" stop-color="#EC3E32"/>
				<stop offset="0.368900" stop-color="#D42F29"/>
				<stop offset="0.591800" stop-color="#B71C1C"/>
			</linearGradient>
		</defs>
		<path id="path" d="M23.88 51.03C24.19 50.71 24.52 50.39 24.86 50.11C25.85 49.28 28.44 47.34 29.84 48.14C30.66 48.62 30.54 50.21 30.24 50.88C29.48 52.52 27.56 53.9 26.37 55.26C25.45 56.34 24.33 57.31 23.32 58.32C21.69 59.94 20.14 61.76 18.39 63.24C18.39 63.24 4.37 75.08 4.37 75.08L3.28 73.99L15.12 59.96C17.34 57.73 19.56 55.51 21.79 53.29C22.51 52.58 23.18 51.77 23.88 51.03Z" fill="url(#paint_linear_9_10_0)" fill-opacity="1.000000" fill-rule="nonzero"/>
		<path id="path" d="M23.88 51.16C21.1 48.17 18.64 44.93 16.63 41.57C15.1 39.01 11.56 33.05 14.39 30.21L16.86 27.73C19.18 25.42 25.3 27.55 32.08 32.57L47.42 17.24C43.57 12.14 41.75 7.89 43.15 6.49L46.28 3.36C48.31 1.32 56.39 6.1 64.33 14.04C72.25 21.96 77.04 30.05 75 32.08L71.87 35.21C70.46 36.61 66.22 34.79 61.12 30.95L45.8 46.28C50.82 53.07 52.95 59.18 50.63 61.51L48.16 63.98C45.24 66.9 39 63.1 36.4 61.5C31.91 58.75 27.62 55.19 23.88 51.16Z" fill="url(#paint_linear_9_12_0)" fill-opacity="1.000000" fill-rule="nonzero"/>
		<path id="path" d="M75.09 31.38C73.34 33.14 65.6 28.26 57.81 20.47C50.02 12.68 45.14 4.95 46.9 3.19C48.65 1.43 56.39 6.31 64.18 14.1C71.97 21.89 76.85 29.63 75.09 31.38Z" fill="url(#paint_linear_9_14_0)" fill-opacity="1.000000" fill-rule="nonzero"/>
		<path id="path" d="M50.96 61.1C48.78 63.28 39.48 57.53 30.21 48.26C20.93 38.98 15.18 29.69 17.36 27.51C19.54 25.33 29.22 28.31 39.75 39C49.96 49.37 53.14 58.92 50.96 61.1Z" fill="url(#paint_linear_9_16_0)" fill-opacity="1.000000" fill-rule="nonzero"/>
		<path id="path" d="M29.76 34.41L47.42 17.24C47.42 17.24 50.76 21.66 53.3 24.25C55.84 26.84 61.13 30.95 61.13 30.95L44 48.08C44 48.08 40.26 46.59 35.97 42.3C30.97 37.31 29.76 34.41 29.76 34.41Z" fill="url(#paint_linear_9_18_0)" fill-opacity="1.000000" fill-rule="nonzero"/>
		<g opacity="0.200000">
			<path id="path" d="M47.9 4.66C48.12 4.66 49.35 4.76 52.4 6.71C55.61 8.67 59.4 11.74 62.98 15.33C66.95 19.3 70.3 23.52 72.16 26.88C73.44 29.09 73.56 30.08 73.56 30.32C73.56 30.38 73.57 30.43 73.58 30.49C73.6 30.69 73.59 30.81 73.58 30.87L70.61 33.84C70.58 33.85 70.52 33.85 70.45 33.85C69.3 33.85 66.45 32.71 62.18 29.49C61.85 29.24 61.46 29.12 61.07 29.12C60.6 29.12 60.13 29.3 59.78 29.65L44.54 44.9C43.91 45.53 43.83 46.54 44.35 47.26C47.22 51.24 48.54 54.22 49.14 56.04L49.21 56.24C49.95 58.56 49.73 59.63 49.6 59.81C49.53 59.88 49.48 59.96 49.42 60.05C49.38 60.12 49.34 60.17 49.29 60.21L46.81 62.69C46.58 62.92 46.17 63.22 45.24 63.22C42.65 63.22 38.9 60.92 37.3 59.94C34.22 58.05 31.21 55.75 28.36 53.1C28 52.77 27.56 52.61 27.11 52.61C26.65 52.61 26.19 52.79 25.83 53.13C25.55 53.4 25.24 53.72 24.94 54.06C24.37 54.72 23.71 55.35 23.02 56.01C22.66 56.34 22.31 56.68 21.97 57.02C21.42 57.57 20.88 58.14 20.35 58.7C19.32 59.79 18.26 60.91 17.16 61.84C16.71 62.2 15.62 63.14 12.68 65.62L16.42 61.2L20.56 57.06L23.02 54.59C23.47 54.14 23.89 53.68 24.29 53.22C24.55 52.93 24.82 52.63 25.09 52.35C25.75 51.65 25.76 50.55 25.1 49.85C22.38 46.92 20.04 43.82 18.14 40.63C15.24 35.8 14.4 32.72 15.62 31.49L18.09 29.02C18.42 28.7 19.02 28.62 19.48 28.62C20.28 28.62 21.3 28.84 22.46 29.23C24.19 29.81 27.08 31.06 30.84 33.74C31.16 33.97 31.53 34.08 31.9 34.08C32.37 34.08 32.82 33.91 33.18 33.57L48.64 18.54C49.29 17.9 49.37 16.86 48.82 16.13C45.16 11.27 44.31 8.41 44.46 7.7L47.44 4.72C47.46 4.72 47.5 4.66 47.52 4.66C47.64 4.64 47.78 4.7 47.9 4.66ZM47.9 2.83C47.7 2.83 47.51 2.86 47.35 2.91C46.88 2.94 46.5 3.09 46.22 3.36L43.1 6.5C41.69 7.9 43.52 12.15 47.36 17.25L31.9 32.27C28.56 29.87 25.52 28.32 23.06 27.51C21.73 27.05 20.51 26.81 19.48 26.81C18.35 26.81 17.44 27.11 16.8 27.73L14.33 30.21C11.5 33.04 15.03 39.01 16.57 41.57C18.56 44.91 21.01 48.13 23.77 51.1C23.08 51.82 22.43 52.6 21.74 53.3C19.52 55.52 17.3 57.75 15.07 59.96L3.23 73.99L4.32 75.08C4.32 75.08 18.34 63.25 18.34 63.25C20.1 61.77 21.65 59.95 23.27 58.32C24.28 57.31 25.39 56.35 26.33 55.27C26.56 54.99 26.83 54.72 27.11 54.44C30 57.12 33.12 59.52 36.34 61.51C38.26 62.68 42.15 65.06 45.24 65.06C46.34 65.06 47.34 64.75 48.11 63.99L50.58 61.51C50.73 61.37 50.85 61.2 50.96 61.03C51.74 60.15 51.76 58.26 50.95 55.69C50.92 55.62 50.9 55.54 50.87 55.47C50.02 52.91 48.37 49.71 45.83 46.2L61.08 30.96C65.02 33.93 68.45 35.69 70.45 35.69C71.04 35.69 71.51 35.54 71.82 35.22L74.95 32.1C75.33 31.71 75.47 31.1 75.39 30.33C75.39 29.32 74.81 27.83 73.77 26.02C71.9 22.63 68.54 18.32 64.28 14.05C60.45 10.21 56.59 7.12 53.39 5.17C51.05 3.68 49.12 2.83 47.9 2.83Z" fill="#424242" fill-opacity="1.000000" fill-rule="nonzero"/>
		</g>
	</symbol>
</svg>
