<svg width="75.472961" height="75" viewBox="0 0 75 75" fill="none" xmlns="http://www.w3.org/2000/svg">
	<symbol id='pushpin_left_ID'>
		<defs>
			<linearGradient x1="59.461315" y1="60.492958" x2="56.667515" y2="63.286762" id="paint_linear_9_164_0" gradientUnits="userSpaceOnUse">
				<stop stop-color="#F5F5F5"/>
				<stop offset="0.145500" stop-color="#EFEFEF"/>
				<stop offset="0.336800" stop-color="#DFDFDF"/>
				<stop offset="0.553500" stop-color="#C3C3C3"/>
				<stop offset="0.787200" stop-color="#9E9E9E"/>
				<stop offset="1.000000" stop-color="#757575"/>
			</linearGradient>
			<linearGradient x1="47.602200" y1="16.397852" x2="13.779148" y2="50.220894" id="paint_linear_9_166_0" gradientUnits="userSpaceOnUse">
				<stop offset="0.004845" stop-color="#F44336"/>
				<stop offset="0.194300" stop-color="#EC3E33"/>
				<stop offset="0.495600" stop-color="#D4302C"/>
				<stop offset="0.649600" stop-color="#C62828"/>
			</linearGradient>
			<linearGradient x1="28.926914" y1="17.291496" x2="0.016092" y2="17.291496" id="paint_linear_9_168_0" gradientUnits="userSpaceOnUse">
				<stop offset="0.002030" stop-color="#FF5252"/>
				<stop offset="0.074200" stop-color="#F34949"/>
				<stop offset="0.267400" stop-color="#D93535"/>
				<stop offset="0.465300" stop-color="#C62727"/>
				<stop offset="0.669200" stop-color="#BB1F1F"/>
				<stop offset="0.888200" stop-color="#B71C1C"/>
			</linearGradient>
			<linearGradient x1="58.899506" y1="44.583435" x2="23.537514" y2="43.839146" id="paint_linear_9_170_0" gradientUnits="userSpaceOnUse">
				<stop offset="0.002030" stop-color="#FF5252"/>
				<stop offset="0.186700" stop-color="#E13B3B"/>
				<stop offset="0.373900" stop-color="#CA2A2A"/>
				<stop offset="0.550200" stop-color="#BC2020"/>
				<stop offset="0.702900" stop-color="#B71C1C"/>
			</linearGradient>
			<linearGradient x1="37.493992" y1="26.057241" x2="23.516819" y2="40.034363" id="paint_linear_9_172_0" gradientUnits="userSpaceOnUse">
				<stop offset="0.004845" stop-color="#F44336"/>
				<stop offset="0.145400" stop-color="#EC3E32"/>
				<stop offset="0.368900" stop-color="#D42F29"/>
				<stop offset="0.591800" stop-color="#B71C1C"/>
			</linearGradient>
		</defs>
		<path id="path" d="M51.58 51.03C51.27 50.71 50.95 50.39 50.61 50.11C49.61 49.28 47.02 47.34 45.63 48.14C44.8 48.62 44.92 50.21 45.22 50.88C45.98 52.52 47.91 53.9 49.09 55.26C50.01 56.34 51.14 57.31 52.15 58.32C53.77 59.94 55.32 61.76 57.07 63.24C57.08 63.24 71.09 75.08 71.09 75.08L72.18 73.99L60.34 59.96C58.12 57.73 55.9 55.51 53.68 53.29C52.96 52.58 52.29 51.77 51.58 51.03Z" fill="url(#paint_linear_9_164_0)" fill-opacity="1.000000" fill-rule="nonzero"/>
		<path id="path" d="M51.58 51.16C54.36 48.17 56.83 44.93 58.83 41.57C60.36 39.01 63.9 33.05 61.07 30.21L58.6 27.73C56.28 25.42 50.17 27.55 43.38 32.57L28.05 17.24C31.89 12.14 33.71 7.89 32.31 6.49L29.19 3.36C27.15 1.32 19.07 6.1 11.14 14.04C3.21 21.96 -1.58 30.05 0.47 32.08L3.59 35.21C5 36.61 9.25 34.79 14.34 30.95L29.67 46.28C24.65 53.07 22.51 59.18 24.83 61.51L27.3 63.98C30.23 66.9 36.46 63.1 39.06 61.5C43.56 58.75 47.85 55.19 51.58 51.16Z" fill="url(#paint_linear_9_166_0)" fill-opacity="1.000000" fill-rule="nonzero"/>
		<path id="path" d="M0.37 31.38C2.12 33.14 9.86 28.26 17.65 20.47C25.44 12.68 30.32 4.95 28.56 3.19C26.81 1.43 19.07 6.31 11.28 14.1C3.49 21.89 -1.39 29.63 0.37 31.38Z" fill="url(#paint_linear_9_168_0)" fill-opacity="1.000000" fill-rule="nonzero"/>
		<path id="path" d="M24.51 61.1C26.69 63.28 35.98 57.53 45.26 48.26C54.53 38.98 60.28 29.69 58.1 27.51C55.92 25.33 46.24 28.31 35.71 39C25.5 49.37 22.32 58.92 24.51 61.1Z" fill="url(#paint_linear_9_170_0)" fill-opacity="1.000000" fill-rule="nonzero"/>
		<path id="path" d="M45.7 34.41L28.05 17.24C28.05 17.24 24.71 21.66 22.17 24.25C19.62 26.84 14.33 30.95 14.33 30.95L31.47 48.08C31.47 48.08 35.21 46.59 39.5 42.3C44.49 37.31 45.7 34.41 45.7 34.41Z" fill="url(#paint_linear_9_172_0)" fill-opacity="1.000000" fill-rule="nonzero"/>
		<g opacity="0.200000">
			<path id="path" d="M27.57 4.66C27.35 4.66 26.11 4.76 23.06 6.71C19.85 8.67 16.07 11.74 12.48 15.33C8.51 19.3 5.16 23.52 3.3 26.88C2.02 29.09 1.9 30.08 1.9 30.32C1.9 30.38 1.89 30.43 1.89 30.49C1.87 30.69 1.87 30.81 1.89 30.87L4.85 33.84C4.88 33.85 4.94 33.85 5.01 33.85C6.16 33.85 9.02 32.71 13.29 29.49C13.62 29.24 14 29.12 14.39 29.12C14.86 29.12 15.33 29.3 15.68 29.65L30.92 44.9C31.56 45.53 31.64 46.54 31.11 47.26C28.24 51.24 26.93 54.22 26.32 56.04L26.25 56.24C25.52 58.56 25.74 59.63 25.86 59.81C25.93 59.88 25.99 59.96 26.04 60.05C26.08 60.12 26.13 60.17 26.18 60.21L28.65 62.69C28.88 62.92 29.3 63.22 30.23 63.22C32.81 63.22 36.56 60.92 38.16 59.94C41.25 58.05 44.26 55.75 47.11 53.1C47.46 52.77 47.91 52.61 48.35 52.61C48.81 52.61 49.28 52.79 49.64 53.13C49.91 53.4 50.23 53.72 50.53 54.06C51.09 54.72 51.75 55.35 52.45 56.01C52.8 56.34 53.15 56.68 53.49 57.02C54.04 57.57 54.58 58.14 55.11 58.7C56.14 59.79 57.21 60.91 58.3 61.84C58.75 62.2 59.84 63.14 62.78 65.62L59.05 61.2L54.9 57.06L52.44 54.59C51.99 54.14 51.57 53.68 51.17 53.22C50.91 52.93 50.64 52.63 50.37 52.35C49.71 51.65 49.7 50.55 50.36 49.85C53.08 46.92 55.42 43.82 57.33 40.63C60.22 35.8 61.06 32.72 59.84 31.49L57.38 29.02C57.05 28.7 56.44 28.62 55.99 28.62C55.19 28.62 54.16 28.84 53.01 29.23C51.27 29.81 48.38 31.06 44.63 33.74C44.3 33.97 43.93 34.08 43.56 34.08C43.1 34.08 42.64 33.91 42.29 33.57L26.83 18.54C26.17 17.9 26.09 16.86 26.64 16.13C30.31 11.27 31.15 8.41 31 7.7L28.02 4.72C28 4.72 27.97 4.66 27.94 4.66C27.82 4.64 27.68 4.7 27.57 4.66ZM27.57 2.83C27.77 2.83 27.95 2.86 28.11 2.91C28.58 2.94 28.97 3.09 29.24 3.36L32.37 6.5C33.77 7.9 31.95 12.15 28.1 17.25L43.56 32.27C46.91 29.87 49.94 28.32 52.4 27.51C53.74 27.05 54.95 26.81 55.98 26.81C57.11 26.81 58.03 27.11 58.66 27.73L61.14 30.21C63.96 33.04 60.43 39.01 58.89 41.57C56.9 44.91 54.45 48.13 51.7 51.1C52.38 51.82 53.03 52.6 53.73 53.3C55.94 55.52 58.17 57.75 60.39 59.96L72.23 73.99L71.14 75.08C71.14 75.08 57.13 63.25 57.12 63.25C55.36 61.77 53.81 59.95 52.2 58.32C51.18 57.31 50.07 56.35 49.14 55.27C48.9 54.99 48.63 54.72 48.35 54.44C45.46 57.12 42.34 59.52 39.12 61.51C37.2 62.68 33.31 65.06 30.23 65.06C29.13 65.06 28.13 64.75 27.36 63.99L24.88 61.51C24.74 61.37 24.61 61.2 24.5 61.03C23.73 60.15 23.7 58.26 24.52 55.69C24.54 55.62 24.57 55.54 24.59 55.47C25.44 52.91 27.09 49.71 29.63 46.2L14.38 30.96C10.45 33.93 7.02 35.69 5.01 35.69C4.42 35.69 3.96 35.54 3.64 35.22L0.51 32.1C0.13 31.71 -0.01 31.1 0.07 30.33C0.08 29.32 0.65 27.83 1.7 26.02C3.57 22.63 6.92 18.32 11.19 14.05C15.01 10.21 18.87 7.12 22.07 5.17C24.41 3.68 26.34 2.83 27.57 2.83Z" fill="#424242" fill-opacity="1.000000" fill-rule="nonzero"/>
		</g>
	</symbol>
</svg>
